<svg xmlns="http://www.w3.org/2000/svg" xmlns:xlink="http://www.w3.org/1999/xlink" width="700" zoomAndPan="magnify" viewBox="0 0 375 374.999991" height="700" preserveAspectRatio="xMidYMid meet" version="1.0"><defs><g/><clipPath id="48963bba2c"><path d="M 82.394531 154.585938 L 141.683594 154.585938 L 141.683594 203.6875 L 82.394531 203.6875 Z M 82.394531 154.585938 " clip-rule="nonzero"/></clipPath><clipPath id="4813757997"><path d="M 120.003906 154.585938 L 141.683594 160.699219 L 141.683594 177.59375 L 122.835938 186.40625 L 86.742188 175.265625 L 86.742188 184.613281 L 122.648438 196.980469 L 141.683594 188.339844 L 141.683594 194.757812 L 122.082031 203.6875 L 82.394531 189.050781 L 82.394531 171.773438 L 120.003906 154.585938 " clip-rule="nonzero"/></clipPath><linearGradient x1="-0.575224" gradientTransform="matrix(0.000000000000001778, -29.011991, 29.033786, 0.000000000000001776, 112.039942, 186.997316)" y1="0" x2="1.117118" gradientUnits="userSpaceOnUse" y2="0" id="22c68fe4c7"><stop stop-opacity="1" stop-color="rgb(0%, 47.799683%, 72.499084%)" offset="0"/><stop stop-opacity="1" stop-color="rgb(0%, 47.799683%, 72.499084%)" offset="0.25"/><stop stop-opacity="1" stop-color="rgb(0%, 47.799683%, 72.499084%)" offset="0.3125"/><stop stop-opacity="1" stop-color="rgb(0%, 47.799683%, 72.499084%)" offset="0.34375"/><stop stop-opacity="1" stop-color="rgb(0%, 47.648621%, 72.340393%)" offset="0.359375"/><stop stop-opacity="1" stop-color="rgb(0%, 47.496033%, 71.990967%)" offset="0.367188"/><stop stop-opacity="1" stop-color="rgb(0%, 47.297668%, 71.798706%)" offset="0.375"/><stop stop-opacity="1" stop-color="rgb(0%, 47.10083%, 71.604919%)" offset="0.382812"/><stop stop-opacity="1" stop-color="rgb(0%, 47.099304%, 71.405029%)" offset="0.390625"/><stop stop-opacity="1" stop-color="rgb(0%, 46.899414%, 71.199036%)" offset="0.394531"/><stop stop-opacity="1" stop-color="rgb(0%, 46.699524%, 70.999146%)" offset="0.398438"/><stop stop-opacity="1" stop-color="rgb(0%, 46.69342%, 70.994568%)" offset="0.40625"/><stop stop-opacity="1" stop-color="rgb(0%, 46.49353%, 70.794678%)" offset="0.421875"/><stop stop-opacity="1" stop-color="rgb(0%, 46.299744%, 70.40863%)" offset="0.429688"/><stop stop-opacity="1" stop-color="rgb(0%, 46.112061%, 70.021057%)" offset="0.433594"/><stop stop-opacity="1" stop-color="rgb(0%, 45.925903%, 69.825745%)" offset="0.4375"/><stop stop-opacity="1" stop-color="rgb(0%, 45.906067%, 69.805908%)" offset="0.445313"/><stop stop-opacity="1" stop-color="rgb(0%, 45.692444%, 69.592285%)" offset="0.453125"/><stop stop-opacity="1" stop-color="rgb(0%, 45.498657%, 69.206238%)" offset="0.46875"/><stop stop-opacity="1" stop-color="rgb(0%, 45.310974%, 69.006348%)" offset="0.476562"/><stop stop-opacity="1" stop-color="rgb(0%, 45.101929%, 68.798828%)" offset="0.480469"/><stop stop-opacity="1" stop-color="rgb(0%, 45.082092%, 68.598938%)" offset="0.484375"/><stop stop-opacity="1" stop-color="rgb(0%, 44.889832%, 68.59436%)" offset="0.492188"/><stop stop-opacity="1" stop-color="rgb(0%, 44.699097%, 68.395996%)" offset="0.5"/><stop stop-opacity="1" stop-color="rgb(0%, 44.508362%, 68.009949%)" offset="0.515625"/><stop stop-opacity="1" stop-color="rgb(0%, 44.297791%, 67.800903%)" offset="0.523438"/><stop stop-opacity="1" stop-color="rgb(0%, 44.088745%, 67.636108%)" offset="0.53125"/><stop stop-opacity="1" stop-color="rgb(0%, 43.899536%, 67.292786%)" offset="0.546875"/><stop stop-opacity="1" stop-color="rgb(0%, 43.707275%, 66.906738%)" offset="0.554688"/><stop stop-opacity="1" stop-color="rgb(0%, 43.507385%, 66.706848%)" offset="0.5625"/><stop stop-opacity="1" stop-color="rgb(0%, 43.299866%, 66.499329%)" offset="0.566406"/><stop stop-opacity="1" stop-color="rgb(0%, 43.099976%, 66.299438%)" offset="0.570312"/><stop stop-opacity="1" stop-color="rgb(0%, 43.099976%, 66.296387%)" offset="0.578125"/><stop stop-opacity="1" stop-color="rgb(0%, 43.099976%, 66.098022%)" offset="0.585938"/><stop stop-opacity="1" stop-color="rgb(0%, 42.906189%, 65.901184%)" offset="0.59375"/><stop stop-opacity="1" stop-color="rgb(0%, 42.704773%, 65.710449%)" offset="0.601562"/><stop stop-opacity="1" stop-color="rgb(0%, 42.69104%, 65.501404%)" offset="0.609375"/><stop stop-opacity="1" stop-color="rgb(0%, 42.541504%, 65.286255%)" offset="0.617187"/><stop stop-opacity="1" stop-color="rgb(0%, 42.399597%, 64.894104%)" offset="0.621094"/><stop stop-opacity="1" stop-color="rgb(0%, 42.399597%, 64.698792%)" offset="0.625"/><stop stop-opacity="1" stop-color="rgb(0%, 42.204285%, 64.698792%)" offset="0.632812"/><stop stop-opacity="1" stop-color="rgb(0%, 42.004395%, 64.508057%)" offset="0.640625"/><stop stop-opacity="1" stop-color="rgb(0%, 41.98761%, 64.297485%)" offset="0.648437"/><stop stop-opacity="1" stop-color="rgb(0%, 41.78772%, 64.08844%)" offset="0.65625"/><stop stop-opacity="1" stop-color="rgb(0%, 41.596985%, 63.897705%)" offset="0.664062"/><stop stop-opacity="1" stop-color="rgb(0%, 41.400146%, 63.700867%)" offset="0.671875"/><stop stop-opacity="1" stop-color="rgb(0%, 41.201782%, 63.314819%)" offset="0.6875"/><stop stop-opacity="1" stop-color="rgb(0%, 40.99884%, 63.102722%)" offset="0.691406"/><stop stop-opacity="1" stop-color="rgb(0%, 40.79895%, 63.082886%)" offset="0.695313"/><stop stop-opacity="1" stop-color="rgb(0%, 40.795898%, 62.890625%)" offset="0.703125"/><stop stop-opacity="1" stop-color="rgb(0%, 40.597534%, 62.69989%)" offset="0.710938"/><stop stop-opacity="1" stop-color="rgb(0%, 40.400696%, 62.553406%)" offset="0.71875"/><stop stop-opacity="1" stop-color="rgb(0%, 40.39917%, 62.214661%)" offset="0.726562"/><stop stop-opacity="1" stop-color="rgb(0%, 40.19928%, 61.999512%)" offset="0.730469"/><stop stop-opacity="1" stop-color="rgb(0%, 39.99939%, 61.979675%)" offset="0.734375"/><stop stop-opacity="1" stop-color="rgb(0%, 39.993286%, 61.78894%)" offset="0.742188"/><stop stop-opacity="1" stop-color="rgb(0%, 39.793396%, 61.598206%)" offset="0.75"/><stop stop-opacity="1" stop-color="rgb(0%, 39.599609%, 61.402893%)" offset="0.757812"/><stop stop-opacity="1" stop-color="rgb(0%, 39.599609%, 61.203003%)" offset="0.765625"/><stop stop-opacity="1" stop-color="rgb(0%, 39.399719%, 60.998535%)" offset="0.769531"/><stop stop-opacity="1" stop-color="rgb(0%, 39.199829%, 60.798645%)" offset="0.773438"/><stop stop-opacity="1" stop-color="rgb(0%, 39.1922%, 60.791016%)" offset="0.78125"/><stop stop-opacity="1" stop-color="rgb(0%, 38.99231%, 60.591125%)" offset="0.796875"/><stop stop-opacity="1" stop-color="rgb(0%, 38.798523%, 60.205078%)" offset="0.804687"/><stop stop-opacity="1" stop-color="rgb(0%, 38.61084%, 59.817505%)" offset="0.8125"/><stop stop-opacity="1" stop-color="rgb(0%, 38.401794%, 59.602356%)" offset="0.820312"/><stop stop-opacity="1" stop-color="rgb(0%, 38.189697%, 59.390259%)" offset="0.828125"/><stop stop-opacity="1" stop-color="rgb(0%, 37.998962%, 59.004211%)" offset="0.84375"/><stop stop-opacity="1" stop-color="rgb(0%, 37.808228%, 58.804321%)" offset="0.851563"/><stop stop-opacity="1" stop-color="rgb(0%, 37.600708%, 58.599854%)" offset="0.855469"/><stop stop-opacity="1" stop-color="rgb(0%, 37.583923%, 58.399963%)" offset="0.859375"/><stop stop-opacity="1" stop-color="rgb(0%, 37.440491%, 58.39386%)" offset="0.867188"/><stop stop-opacity="1" stop-color="rgb(0%, 37.298584%, 58.192444%)" offset="0.875"/><stop stop-opacity="1" stop-color="rgb(0%, 37.106323%, 57.806396%)" offset="0.890625"/><stop stop-opacity="1" stop-color="rgb(0%, 36.894226%, 57.597351%)" offset="0.898438"/><stop stop-opacity="1" stop-color="rgb(0%, 36.686707%, 57.432556%)" offset="0.90625"/><stop stop-opacity="1" stop-color="rgb(0%, 36.499023%, 57.090759%)" offset="0.921875"/><stop stop-opacity="1" stop-color="rgb(0%, 36.303711%, 56.704712%)" offset="0.9375"/><stop stop-opacity="1" stop-color="rgb(0%, 36.103821%, 56.504822%)" offset="1"/></linearGradient><clipPath id="9043717b85"><path d="M 84.449219 135.847656 L 144.625 135.847656 L 144.625 213.84375 L 84.449219 213.84375 Z M 84.449219 135.847656 " clip-rule="nonzero"/></clipPath></defs><g clip-path="url(#48963bba2c)"><g clip-path="url(#4813757997)"><path fill="url(#22c68fe4c7)" d="M 82.394531 203.6875 L 141.683594 203.6875 L 141.683594 154.585938 L 82.394531 154.585938 Z M 82.394531 203.6875 " fill-rule="nonzero"/></g></g><g clip-path="url(#9043717b85)"><path fill="#45c4b0" d="M 88.070312 135.847656 L 144.625 135.847656 L 144.625 213.84375 L 84.449219 213.84375 L 84.449219 189.828125 L 91.6875 192.507812 L 91.6875 206.609375 L 137.386719 206.609375 L 137.386719 143.082031 L 91.6875 143.082031 L 91.6875 167.578125 L 84.449219 170.886719 L 84.449219 135.847656 L 88.070312 135.847656 " fill-opacity="1" fill-rule="nonzero"/></g><g fill="#ffffff" fill-opacity="1"><g transform="translate(156.343941, 184.251638)"><g><path d="M 0.78125 -14.046875 C 0.78125 -18.097656 2.160156 -21.53125 4.921875 -24.34375 C 7.691406 -27.15625 11.023438 -28.5625 14.921875 -28.5625 C 18.847656 -28.5625 22.179688 -27.160156 24.921875 -24.359375 C 27.660156 -21.554688 29.03125 -18.117188 29.03125 -14.046875 C 29.03125 -9.941406 27.679688 -6.488281 24.984375 -3.6875 C 22.285156 -0.882812 18.929688 0.515625 14.921875 0.515625 C 10.816406 0.515625 7.429688 -0.867188 4.765625 -3.640625 C 2.109375 -6.421875 0.78125 -9.890625 0.78125 -14.046875 Z M 7.6875 -14.046875 C 7.6875 -12.566406 7.910156 -11.21875 8.359375 -10 C 8.816406 -8.789062 9.609375 -7.765625 10.734375 -6.921875 C 11.867188 -6.085938 13.265625 -5.671875 14.921875 -5.671875 C 17.304688 -5.671875 19.101562 -6.488281 20.3125 -8.125 C 21.53125 -9.757812 22.140625 -11.734375 22.140625 -14.046875 C 22.140625 -16.328125 21.519531 -18.289062 20.28125 -19.9375 C 19.039062 -21.582031 17.253906 -22.40625 14.921875 -22.40625 C 12.609375 -22.40625 10.820312 -21.582031 9.5625 -19.9375 C 8.3125 -18.289062 7.6875 -16.328125 7.6875 -14.046875 Z M 7.6875 -14.046875 "/></g></g></g><g fill="#ffffff" fill-opacity="1"><g transform="translate(186.634516, 184.251638)"><g><path d="M 8.4375 -17.40625 L 8.4375 0 L 2.046875 0 L 2.046875 -28.046875 L 8.4375 -28.046875 L 19.578125 -10.640625 L 19.65625 -10.640625 L 19.65625 -28.046875 L 26.046875 -28.046875 L 26.046875 0 L 19.65625 0 L 8.5 -17.40625 Z M 8.4375 -17.40625 "/></g></g></g><g fill="#ffffff" fill-opacity="1"><g transform="translate(215.191288, 184.251638)"><g><path d="M 2.046875 -28.046875 L 10.75 -28.046875 C 13.375 -28.046875 15.46875 -27.484375 17.03125 -26.359375 C 18.59375 -25.242188 19.375 -23.425781 19.375 -20.90625 C 19.375 -18.09375 18.207031 -16.085938 15.875 -14.890625 C 19.863281 -14.191406 21.859375 -11.832031 21.859375 -7.8125 C 21.859375 -5.457031 21.039062 -3.566406 19.40625 -2.140625 C 17.78125 -0.710938 15.539062 0 12.6875 0 L 2.046875 0 Z M 8.4375 -17.0625 L 8.9375 -17.0625 C 10.363281 -17.0625 11.425781 -17.3125 12.125 -17.8125 C 12.832031 -18.3125 13.1875 -19.128906 13.1875 -20.265625 C 13.1875 -22.171875 11.769531 -23.125 8.9375 -23.125 L 8.4375 -23.125 Z M 8.4375 -4.9375 L 10.4375 -4.9375 C 13.5625 -4.9375 15.125 -5.976562 15.125 -8.0625 C 15.125 -9.300781 14.734375 -10.191406 13.953125 -10.734375 C 13.171875 -11.285156 12 -11.5625 10.4375 -11.5625 L 8.4375 -11.5625 Z M 8.4375 -4.9375 "/></g></g></g><g fill="#ffffff" fill-opacity="1"><g transform="translate(238.308684, 184.251638)"><g><path d="M 0.78125 -14.046875 C 0.78125 -18.097656 2.160156 -21.53125 4.921875 -24.34375 C 7.691406 -27.15625 11.023438 -28.5625 14.921875 -28.5625 C 18.847656 -28.5625 22.179688 -27.160156 24.921875 -24.359375 C 27.660156 -21.554688 29.03125 -18.117188 29.03125 -14.046875 C 29.03125 -9.941406 27.679688 -6.488281 24.984375 -3.6875 C 22.285156 -0.882812 18.929688 0.515625 14.921875 0.515625 C 10.816406 0.515625 7.429688 -0.867188 4.765625 -3.640625 C 2.109375 -6.421875 0.78125 -9.890625 0.78125 -14.046875 Z M 7.6875 -14.046875 C 7.6875 -12.566406 7.910156 -11.21875 8.359375 -10 C 8.816406 -8.789062 9.609375 -7.765625 10.734375 -6.921875 C 11.867188 -6.085938 13.265625 -5.671875 14.921875 -5.671875 C 17.304688 -5.671875 19.101562 -6.488281 20.3125 -8.125 C 21.53125 -9.757812 22.140625 -11.734375 22.140625 -14.046875 C 22.140625 -16.328125 21.519531 -18.289062 20.28125 -19.9375 C 19.039062 -21.582031 17.253906 -22.40625 14.921875 -22.40625 C 12.609375 -22.40625 10.820312 -21.582031 9.5625 -19.9375 C 8.3125 -18.289062 7.6875 -16.328125 7.6875 -14.046875 Z M 7.6875 -14.046875 "/></g></g></g><g fill="#ffffff" fill-opacity="1"><g transform="translate(268.599259, 184.251638)"><g><path d="M 0.78125 -14.046875 C 0.78125 -18.097656 2.160156 -21.53125 4.921875 -24.34375 C 7.691406 -27.15625 11.023438 -28.5625 14.921875 -28.5625 C 18.847656 -28.5625 22.179688 -27.160156 24.921875 -24.359375 C 27.660156 -21.554688 29.03125 -18.117188 29.03125 -14.046875 C 29.03125 -9.941406 27.679688 -6.488281 24.984375 -3.6875 C 22.285156 -0.882812 18.929688 0.515625 14.921875 0.515625 C 10.816406 0.515625 7.429688 -0.867188 4.765625 -3.640625 C 2.109375 -6.421875 0.78125 -9.890625 0.78125 -14.046875 Z M 7.6875 -14.046875 C 7.6875 -12.566406 7.910156 -11.21875 8.359375 -10 C 8.816406 -8.789062 9.609375 -7.765625 10.734375 -6.921875 C 11.867188 -6.085938 13.265625 -5.671875 14.921875 -5.671875 C 17.304688 -5.671875 19.101562 -6.488281 20.3125 -8.125 C 21.53125 -9.757812 22.140625 -11.734375 22.140625 -14.046875 C 22.140625 -16.328125 21.519531 -18.289062 20.28125 -19.9375 C 19.039062 -21.582031 17.253906 -22.40625 14.921875 -22.40625 C 12.609375 -22.40625 10.820312 -21.582031 9.5625 -19.9375 C 8.3125 -18.289062 7.6875 -16.328125 7.6875 -14.046875 Z M 7.6875 -14.046875 "/></g></g></g><g fill="#ffffff" fill-opacity="1"><g transform="translate(298.889834, 184.251638)"><g><path d="M 27.578125 0 L 18.765625 0 L 8.4375 -11.90625 L 8.4375 0 L 2.046875 0 L 2.046875 -28.046875 L 8.4375 -28.046875 L 8.4375 -16.59375 L 18.046875 -28.046875 L 25.8125 -28.046875 L 14.515625 -14.75 Z M 27.578125 0 "/></g></g></g></svg>